<svg width="20" height="20" viewBox="0 0 20 20" fill="none" xmlns="http://www.w3.org/2000/svg">
<path d="M16.6433 2.16996C17.5766 3.04314 18.1641 4.28151 18.1641 5.65735C18.1641 6.08947 18.1061 6.51947 17.9913 6.93543C17.9438 7.10604 17.8876 7.27327 17.8223 7.43563L17.6966 7.7222L13.3826 15.6964L8.93861 7.42461C8.87241 7.258 8.81931 7.09869 8.77412 6.9351C8.65939 6.52065 8.6011 6.09069 8.6011 5.65735C8.6011 4.30322 9.16951 3.08139 10.0772 2.21057L6.98 0.213918V3.15612H6.35498V0.149347L0 3.3869V20L6.35498 16.0384V12.8186H6.98V16.0394L13.0701 19.8359V16.7755H13.6951V19.7828L20 15.9979V0L16.6433 2.16996ZM6.98 11.0828H6.35498V8.85531H6.98V11.0828ZM6.98 7.11943H6.35498V4.89196H6.98V7.11943Z" fill="white"/>
<path d="M13.3826 3.95232C12.4646 3.95232 11.7176 4.6991 11.7176 5.61706C11.7176 6.53502 12.4646 7.28179 13.3826 7.28179C14.3005 7.28179 15.0476 6.53502 15.0476 5.61706C15.0476 4.6991 14.3005 3.95232 13.3826 3.95232Z" fill="white"/>
<path d="M13.3826 1.50085C11.0907 1.50085 9.22608 3.36547 9.22608 5.65734C9.22608 6.03424 9.27674 6.40836 9.37653 6.76881C9.41559 6.91073 9.462 7.04926 9.5151 7.18416L9.64604 7.4811L13.3826 14.3829L17.2461 7.19298C17.2992 7.06143 17.348 6.91681 17.3883 6.7691C17.4884 6.40718 17.5391 6.0333 17.5391 5.65734C17.5391 3.36547 15.6744 1.50085 13.3826 1.50085ZM13.3826 7.90681C12.1198 7.90681 11.0925 6.87959 11.0925 5.6171C11.0925 4.35457 12.1198 3.32734 13.3826 3.32734C14.6454 3.32734 15.6726 4.35457 15.6726 5.6171C15.6726 6.87959 14.6454 7.90681 13.3826 7.90681Z" fill="white"/>
</svg>
