<svg width="224" height="193" viewBox="0 0 224 193" fill="none" xmlns="http://www.w3.org/2000/svg">
<path d="M1.5 190.5L13.5 36.5H110.5L116.5 99H96.5L89.5 190.5H1.5Z" fill="#072227" stroke="#072227"/>
<path d="M96.5 99L89.5 190.5H188.5L182.5 99H96.5Z" fill="#35858B" stroke="#35858B"/>
<path d="M110.5 36.5L116.5 99H147L139 36.5H110.5Z" fill="#4FBDBA" stroke="#4FBDBA"/>
<path d="M182.5 99L188.5 190.5H220.5L212.5 99H182.5Z" fill="#AEFEFF" stroke="#AEFEFF"/>
<path d="M125 36.5L132.5 99" stroke="#072227" stroke-width="7"/>
<path d="M198 99L204 172M204 172L188.5 190.5M204 172L220.5 190.5" stroke="#35858B" stroke-width="7"/>
<path d="M122.048 121.037C121.631 123.172 122.331 125.37 122.331 127.537C122.331 129.617 122.301 131.896 123.071 133.863C123.461 134.86 123.609 135.915 124.102 136.901C124.769 138.234 125.469 139.33 126.51 140.371C128.623 142.484 131.914 144.691 135.016 144.691C138.979 144.691 143.102 143.673 145.876 140.694C147.03 139.454 147.98 137.996 148.685 136.468C149.217 135.316 149.41 134.138 149.74 132.95C149.982 132.076 149.952 131.009 149.952 130.102C149.952 128.861 150.094 127.574 150.094 126.309C150.094 124.455 149.952 122.506 149.952 120.612" stroke="#E9EEF2" stroke-width="5" stroke-linecap="round"/>
<path d="M63.2987 36.4157C62.6704 33.1954 62.7776 29.1358 63.6532 26.0089C65.4294 19.6653 67.2736 9.84723 74.4145 7.29691C76.3173 6.61734 78.18 5.64877 80.0357 4.85347C82.4261 3.82899 84.9744 3.82194 87.4546 3.25827C91.3179 2.38025 95.4191 3.60362 98.5071 5.87895C100.99 7.70825 103.679 9.19847 105.179 12.0319C106.869 15.2242 107.872 18.2834 108.635 21.717C109.735 26.6659 110.699 31.1392 110.699 36.1878" stroke="#DADCDE" stroke-width="5" stroke-linecap="round"/>
<path d="M79.6087 57.023C79.6087 53.6804 79.6087 50.3378 79.6087 46.9953C79.6087 43.5015 78.8351 40.3555 77.7981 37.0372C76.2399 32.051 74.8481 26.0825 70.2773 22.8661C68.5852 21.6753 67.5785 20.0543 65.6813 19.1057C63.6568 18.0934 61.122 18.4789 58.9265 18.4789C54.4178 18.4789 48.6555 21.5371 45.0687 24.1195C42.058 26.2873 40.6128 30.9687 39.4281 34.391C38.4517 37.2117 38.2443 41.1571 38.2443 44.175C38.2443 46.4031 37.9309 48.7062 37.9309 51.069C37.9309 52.2206 37.0348 57.2017 37.9309 57.6497" stroke="#E9EEF2" stroke-width="5" stroke-linecap="round"/>
<path d="M31 66.1481L38.5 58L46 66.1481V78H31V66.1481Z" fill="#35858B" stroke="#35858B"/>
</svg>
